<?xml version="1.0" standalone="no"?>
<!DOCTYPE svg PUBLIC "-//W3C//DTD SVG 20010904//EN"
 "http://www.w3.org/TR/2001/REC-SVG-20010904/DTD/svg10.dtd">
<svg version="1.0" xmlns="http://www.w3.org/2000/svg"
 width="320.000000pt" height="240.000000pt" viewBox="0 0 320.000000 240.000000"
 preserveAspectRatio="xMidYMid meet">

<g transform="translate(0.000000,240.000000) scale(0.100000,-0.100000)"
fill="#000000" stroke="none">
<path d="M0 2224 l0 -176 40 4 c22 2 40 1 40 -3 0 -3 52 -6 116 -6 75 1 118
-3 122 -10 4 -6 25 -13 47 -15 35 -3 41 -6 45 -33 l6 -30 11 32 c6 17 21 36
32 43 12 6 21 17 21 26 0 8 12 20 28 26 15 7 38 20 51 30 13 10 40 18 60 18
21 0 42 5 48 11 26 26 343 40 401 18 14 -5 43 -12 66 -14 22 -3 53 -8 69 -11
29 -6 33 2 14 27 -18 23 -54 40 -87 41 -18 1 -30 7 -33 18 -2 9 -19 24 -38 33
l-34 17 45 -6 c25 -4 70 -15 100 -24 38 -12 62 -15 79 -8 22 8 23 7 10 -9 -12
-15 -12 -16 4 -10 10 4 21 7 23 7 3 0 2 5 -2 12 -4 7 -3 8 4 4 6 -4 23 0 36 9
14 9 31 18 38 19 15 3 61 22 103 42 17 8 44 18 60 24 17 5 68 23 115 39 l85
30 -862 1 -863 0 0 -176z m420 -199 c7 -9 8 -15 2 -15 -5 0 -12 7 -16 15 -3 8
-4 15 -2 15 2 0 9 -7 16 -15z"/>
<path d="M1238 2173 c5 -10 11 -25 14 -33 3 -10 6 -8 10 8 5 16 1 25 -14 33
-17 9 -18 8 -10 -8z"/>
<path d="M800 2020 c-19 -5 -42 -7 -50 -5 -9 3 -42 -2 -73 -10 -32 -8 -66 -15
-76 -15 -33 0 -136 -59 -161 -92 -46 -59 -54 -102 -35 -190 37 -179 132 -327
368 -571 47 -48 90 -101 97 -117 10 -23 19 -30 41 -30 18 0 30 6 34 19 8 27
117 137 208 209 46 37 75 67 71 74 -4 6 -3 8 3 5 5 -4 23 8 39 26 25 27 25 29
4 12 -21 -17 -21 -15 4 12 16 18 33 30 39 26 5 -3 4 4 -2 15 -6 12 -16 24 -21
27 -6 4 -8 11 -4 16 3 5 10 7 15 3 5 -3 7 -9 4 -14 -7 -12 12 -23 25 -15 8 5
8 11 0 20 -8 10 -7 13 6 11 9 0 19 4 21 11 3 7 -3 9 -16 6 -12 -3 -21 -2 -21
1 0 12 22 50 32 57 5 3 2 9 -7 12 -9 4 -14 3 -11 -1 3 -4 -4 -13 -15 -20 -17
-11 -19 -9 -19 19 0 17 -7 38 -16 46 -11 12 -14 25 -9 47 4 17 7 37 6 44 -2
19 -1 29 2 155 2 64 0 117 -5 117 -5 0 -6 5 -3 10 3 6 0 10 -8 10 -8 0 -28 7
-45 16 -17 8 -48 17 -69 20 -21 3 -60 11 -88 19 -64 17 -219 26 -265 15z m189
-737 c-3 -21 2 -26 12 -13 8 11 9 9 4 -10 -4 -14 -11 -29 -15 -34 -13 -13 -90
4 -90 20 0 20 30 30 41 13 7 -11 10 -9 15 9 6 19 36 33 33 15z m111 -23 c12
-7 11 -13 -10 -37 -14 -15 -26 -30 -27 -31 -1 -2 -11 -1 -22 3 -21 6 -21 7 5
41 29 37 32 38 54 24z m-168 -98 c3 -10 -3 -43 -12 -73 -13 -41 -19 -50 -25
-36 -7 16 1 103 12 120 8 13 21 8 25 -11z"/>
<path d="M1642 2009 c-10 -15 -17 -18 -26 -10 -18 15 -80 8 -100 -12 -22 -21
-11 -40 17 -31 19 6 51 9 140 13 21 1 24 41 3 41 -8 0 -16 5 -18 10 -2 6 -9 1
-16 -11z"/>
<path d="M401 1924 c0 -11 3 -14 6 -6 3 7 2 16 -1 19 -3 4 -6 -2 -5 -13z"/>
<path d="M1627 1901 c-8 -36 -26 -38 -42 -3 -12 27 -21 28 -37 2 -14 -23 -30
-27 -22 -6 3 7 -1 16 -10 19 -12 5 -13 0 -5 -26 14 -48 11 -142 -6 -208 l-16
-59 74 -109 c41 -59 80 -122 88 -140 8 -17 17 -31 22 -31 4 0 17 16 28 35 12
19 25 32 30 29 5 -3 18 5 28 18 16 18 17 24 6 31 -16 8 -17 66 -2 85 6 8 6 12
-2 12 -8 0 -9 12 -5 38 9 57 6 115 -8 124 -10 6 -10 10 2 18 12 8 13 12 2 19
-8 4 -12 21 -10 37 2 16 -1 31 -7 34 -6 3 -11 -12 -13 -32 -4 -48 -22 -50 -22
-4 0 19 -4 37 -9 40 -4 3 -11 18 -14 34 -3 15 -14 39 -25 52 l-19 23 -6 -32z"/>
<path d="M1730 1864 c0 -8 5 -12 10 -9 6 4 8 11 5 16 -9 14 -15 11 -15 -7z"/>
<path d="M1364 1488 c-11 -17 6 -22 22 -7 13 14 13 16 -1 16 -9 0 -18 -4 -21
-9z"/>
<path d="M1660 1266 c0 -27 7 -31 34 -20 17 7 22 34 7 34 -5 0 -16 3 -25 6
-12 5 -16 0 -16 -20z"/>
<path d="M826 908 c-19 -62 -12 -72 62 -84 l40 -6 4 41 c3 37 1 41 -26 51 -40
14 -76 13 -80 -2z"/>
<path d="M1150 776 c-19 -8 -50 -15 -69 -15 -19 -1 -62 -11 -95 -24 -57 -22
-70 -23 -196 -16 -74 4 -167 14 -205 22 -74 16 -93 14 -215 -18 -176 -46 -224
-50 -295 -27 -33 11 -63 18 -67 15 -5 -2 -8 -164 -8 -359 l0 -354 1600 0 1600
0 0 128 0 129 -41 13 c-56 19 -58 30 -5 30 l46 0 0 103 0 102 -32 17 c-40 20
-65 28 -98 34 -14 3 -36 9 -50 13 -14 5 -47 12 -75 15 -99 10 -280 39 -305 49
-28 10 -165 29 -197 28 -18 -1 -33 2 -33 7 0 10 -92 7 -125 -3 l-20 -7 20 18
20 17 -20 -8 c-38 -14 -65 -17 -65 -7 0 6 -31 14 -70 18 -38 3 -67 10 -65 14
3 5 -15 7 -40 7 -36 -2 -45 1 -45 15 0 12 5 16 18 11 15 -5 15 -4 2 10 -12 13
-53 17 -210 24 -196 8 -229 8 -375 3 -44 -2 -118 0 -165 3 -62 5 -94 3 -120
-7z m1320 -476 c6 -11 9 -20 7 -20 -2 0 -12 9 -22 20 -10 11 -13 20 -7 20 6 0
16 -9 22 -20z m-1660 -6 c0 -8 -4 -12 -10 -9 -5 3 -10 10 -10 16 0 5 5 9 10 9
6 0 10 -7 10 -16z m-166 -189 c-4 -9 0 -15 10 -15 19 0 20 -5 6 -31 -15 -27
-25 -24 -27 9 -2 28 3 52 11 52 3 0 3 -7 0 -15z m-294 -9 c0 -3 -4 -8 -10 -11
-5 -3 -10 -1 -10 4 0 6 5 11 10 11 6 0 10 -2 10 -4z"/>
<path d="M2160 710 c8 -5 22 -10 30 -10 13 0 13 1 0 10 -8 5 -22 10 -30 10
-13 0 -13 -1 0 -10z"/>
<path d="M2230 690 c0 -5 4 -10 9 -10 6 0 13 5 16 10 3 6 -1 10 -9 10 -9 0
-16 -4 -16 -10z"/>
</g>
</svg>
